<svg width="48.000000" height="48.045898" viewBox="0 0 48 48.0459" fill="none" xmlns="http://www.w3.org/2000/svg" xmlns:xlink="http://www.w3.org/1999/xlink">
	<desc>
			Created with Pixso.
	</desc>
	<defs>
		<clipPath id="clip3628_3332">
			<rect rx="-0.500000" width="47.000000" height="47.046005" transform="translate(0.500000 0.500000)" fill="white" fill-opacity="0"/>
		</clipPath>
	</defs>
	<rect rx="-0.500000" width="47.000000" height="47.046005" transform="translate(0.500000 0.500000)" fill="#FFFFFF" fill-opacity="0"/>
	<g clip-path="url(#clip3628_3332)">
		<path d="M48 24.02C48 37.29 37.25 48.04 24 48.04C10.74 48.04 0 37.29 0 24.02C0 10.75 10.74 0 24 0C37.25 0 48 10.75 48 24.02Z" fill="#4D76A1" fill-opacity="1.000000" fill-rule="evenodd"/>
		<path d="M23.09 34.55L24.97 34.55C24.97 34.55 25.54 34.49 25.83 34.18C26.1 33.89 26.09 33.35 26.09 33.35C26.09 33.35 26.05 30.82 27.23 30.45C28.38 30.08 29.87 32.89 31.44 33.97C32.63 34.79 33.54 34.61 33.54 34.61L37.75 34.55C37.75 34.55 39.95 34.42 38.9 32.69C38.82 32.54 38.29 31.4 35.77 29.06C33.13 26.61 33.49 27.01 36.67 22.77C38.6 20.18 39.38 18.61 39.13 17.93C38.9 17.29 37.48 17.46 37.48 17.46L32.74 17.49C32.74 17.49 32.39 17.44 32.13 17.6C31.88 17.75 31.71 18.1 31.71 18.1C31.71 18.1 30.96 20.1 29.96 21.8C27.85 25.39 27.01 25.58 26.66 25.36C25.86 24.84 26.06 23.27 26.06 22.16C26.06 18.68 26.59 17.23 25.04 16.86C24.52 16.73 24.14 16.65 22.82 16.64C21.13 16.62 19.7 16.64 18.89 17.04C18.35 17.31 17.94 17.89 18.19 17.93C18.5 17.97 19.21 18.12 19.59 18.63C20.08 19.29 20.06 20.78 20.06 20.78C20.06 20.78 20.34 24.87 19.41 25.38C18.77 25.73 17.89 25.01 16.01 21.76C15.05 20.09 14.32 18.25 14.32 18.25C14.32 18.25 14.18 17.91 13.93 17.72C13.62 17.5 13.2 17.43 13.2 17.43L8.7 17.46C8.7 17.46 8.02 17.48 7.77 17.77C7.55 18.03 7.75 18.57 7.75 18.57C7.75 18.57 11.28 26.83 15.27 30.99C18.93 34.8 23.09 34.55 23.09 34.55Z" fill="#FFFFFF" fill-opacity="1.000000" fill-rule="evenodd"/>
	</g>
</svg>
