<svg width="48.000000" height="48.045898" viewBox="0 0 48 48.0459" fill="none" xmlns="http://www.w3.org/2000/svg" xmlns:xlink="http://www.w3.org/1999/xlink">
	<desc>
			Created with Pixso.
	</desc>
	<defs>
		<clipPath id="clip3628_3326">
			<rect rx="-0.500000" width="47.000000" height="47.046005" transform="translate(0.500000 0.500000)" fill="white" fill-opacity="0"/>
		</clipPath>
	</defs>
	<rect rx="-0.500000" width="47.000000" height="47.046005" transform="translate(0.500000 0.500000)" fill="#FFFFFF" fill-opacity="0"/>
	<g clip-path="url(#clip3628_3326)">
		<path d="M23.98 0.01C10.74 0.01 0 10.76 0 24.02C0 28.61 1.32 33.11 3.79 36.97L0.06 46.66C-0.14 47.18 0.12 47.76 0.63 47.96C0.75 48 0.87 48.03 1 48.03C1.11 48.03 1.22 48.01 1.33 47.97L11.33 44.4C22.57 51.41 37.36 47.96 44.37 36.71C51.37 25.45 47.93 10.65 36.69 3.64C32.87 1.26 28.47 0 23.98 0.01Z" fill="#55CD6C" fill-opacity="1.000000" fill-rule="nonzero"/>
		<path d="M35.42 28.12C35.42 28.12 32.97 26.92 31.44 26.12C29.7 25.23 27.66 26.9 26.7 27.85C25.21 27.28 23.85 26.41 22.69 25.3C21.58 24.15 20.72 22.78 20.14 21.29C21.1 20.33 22.76 18.29 21.88 16.55C21.09 15.01 19.88 12.56 19.88 12.56C19.71 12.23 19.36 12.01 18.99 12.01L16.99 12.01C14.08 12.52 11.96 15.06 11.99 18.01C11.99 21.16 15.75 27.19 18.28 29.73C20.81 32.26 26.84 36.02 29.98 36.02C32.93 36.05 35.47 33.93 35.98 31.02L35.98 29.02C35.98 28.64 35.76 28.29 35.42 28.12Z" fill="#FAFAFA" fill-opacity="1.000000" fill-rule="nonzero"/>
	</g>
</svg>
