<svg width="113.000000" height="102.000000" viewBox="0 0 113 102" fill="none" xmlns="http://www.w3.org/2000/svg" xmlns:xlink="http://www.w3.org/1999/xlink">
	<desc>
			Created with Pixso.
	</desc>
	<defs/>
	<path id="Vector" d="M25.76 98.84C7.4 92.5 3.31 77.67 2.83 59.78C2.72 55.61 2.82 51.47 2.93 47.3C11.03 45.89 18.79 43.29 25.91 39.06C30.2 41.61 34.54 43.48 39.28 44.98C39.61 45.08 39.67 45.49 40.37 45.49C40.7 45.49 40.63 45.39 40.86 45.46C43.65 46.26 46.01 46.8 48.89 47.3C49.15 57.25 49.37 68.54 46.44 78.05C43.12 88.78 36.44 95.25 26.05 98.84L25.76 98.84ZM40.77 58.81C40.53 58.57 40.21 58.44 39.88 58.44C39.54 58.44 39.22 58.57 38.99 58.81L22.84 75.3L15.21 67.51C15.09 67.39 14.96 67.3 14.8 67.23C14.65 67.17 14.49 67.14 14.32 67.14C14.16 67.14 13.99 67.17 13.84 67.23C13.69 67.3 13.55 67.39 13.43 67.51C13.32 67.63 13.22 67.77 13.16 67.93C13.1 68.09 13.06 68.25 13.06 68.42C13.06 68.59 13.1 68.76 13.16 68.92C13.22 69.07 13.32 69.21 13.43 69.33L21.95 78.03C22.07 78.15 22.21 78.25 22.36 78.31C22.51 78.38 22.67 78.41 22.84 78.41C23.01 78.41 23.17 78.38 23.32 78.31C23.48 78.25 23.61 78.15 23.73 78.03L40.77 60.63C40.88 60.51 40.98 60.37 41.04 60.21C41.1 60.06 41.14 59.89 41.14 59.72C41.14 59.55 41.1 59.38 41.04 59.23C40.98 59.07 40.88 58.93 40.77 58.81ZM49.24 30.44L49.24 17.89C49.24 17.67 49.33 17.46 49.48 17.31C49.63 17.16 49.83 17.07 50.05 17.07L79.92 17.07L79.92 30.44L49.24 30.44ZM82.44 3.85C82.44 3.64 82.53 3.43 82.68 3.28C82.83 3.12 83.03 3.04 83.25 3.04L97.44 3.04C97.65 3.04 97.86 3.12 98.01 3.28C98.16 3.43 98.24 3.64 98.24 3.85L98.24 30.44L82.44 30.44L82.44 3.85ZM22.01 23.62C22.01 24.29 21.46 24.83 20.93 25.15C20.24 25.56 19.4 25.75 18.6 25.75L5.71 25.75C4.92 25.75 4.07 25.56 3.38 25.14C2.86 24.83 2.31 24.29 2.31 23.62L2.31 21.84C2.31 21.17 2.86 20.64 3.38 20.32C4.07 19.9 4.92 19.71 5.71 19.71L17.38 19.72C17.6 19.76 17.66 19.82 17.91 19.82L21.02 19.79C21.36 19.89 21.93 20.18 22.01 20.47L22.01 23.62Z" fill="#C4B5FD" fill-opacity="1.000000" fill-rule="evenodd"/>
	<path id="Vector" d="M41.09 58.48C41.25 58.64 41.38 58.84 41.46 59.05C41.55 59.26 41.59 59.49 41.59 59.72C41.59 59.95 41.55 60.18 41.46 60.39C41.38 60.61 41.25 60.8 41.09 60.96L24.05 78.37C23.9 78.53 23.71 78.66 23.5 78.75C23.29 78.83 23.07 78.88 22.84 78.88C22.61 78.88 22.39 78.83 22.18 78.75C21.97 78.66 21.78 78.53 21.63 78.37L13.11 69.66C12.95 69.5 12.82 69.31 12.74 69.1C12.65 68.88 12.6 68.65 12.6 68.42C12.6 68.19 12.65 67.97 12.74 67.75C12.82 67.54 12.95 67.35 13.11 67.18C13.78 66.5 14.86 66.5 15.54 67.18L22.84 74.64L38.66 58.48C39.33 57.8 40.42 57.8 41.09 58.48ZM85.42 57.47L85.42 43.43C85.42 42.46 86.19 41.68 87.14 41.68C88.09 41.68 88.85 42.46 88.85 43.43L88.85 57.47C88.85 58.44 88.09 59.22 87.14 59.22C86.19 59.22 85.42 58.43 85.42 57.47ZM71.68 57.47L71.68 43.43C71.68 42.97 71.86 42.52 72.19 42.19C72.51 41.86 72.94 41.68 73.4 41.68C73.85 41.68 74.29 41.86 74.61 42.19C74.94 42.52 75.12 42.97 75.12 43.43L75.12 57.47C75.12 57.93 74.94 58.38 74.61 58.71C74.29 59.04 73.86 59.22 73.4 59.22C73.17 59.22 72.95 59.17 72.74 59.09C72.53 59 72.35 58.87 72.19 58.71C72.03 58.54 71.9 58.35 71.81 58.14C71.73 57.93 71.68 57.7 71.68 57.47ZM57.94 57.47L57.94 43.43C57.94 43.2 57.99 42.97 58.07 42.76C58.16 42.55 58.29 42.36 58.45 42.19C58.61 42.03 58.8 41.9 59 41.81C59.21 41.72 59.44 41.68 59.66 41.68C60.12 41.68 60.55 41.86 60.88 42.19C61.2 42.52 61.38 42.97 61.38 43.43L61.38 57.47C61.38 57.93 61.2 58.38 60.87 58.71C60.55 59.04 60.12 59.22 59.66 59.22C59.21 59.22 58.77 59.04 58.45 58.71C58.13 58.38 57.94 57.93 57.94 57.47ZM93.04 86.18C93.04 88.85 90.91 91.03 88.28 91.03C85.66 91.03 83.53 88.85 83.53 86.18C83.53 83.49 85.66 81.31 88.28 81.31C90.91 81.31 93.04 83.49 93.04 86.18ZM62.77 86.18C62.77 88.85 60.64 91.03 58.02 91.03C55.39 91.03 53.26 88.85 53.26 86.18C53.26 83.49 55.39 81.31 58.02 81.31C60.64 81.31 62.77 83.49 62.77 86.18ZM25.91 98.39C36.42 94.77 42.81 88.25 46 77.91C48.86 68.67 48.71 57.63 48.44 47.7C46.31 47.33 44.19 46.86 42.1 46.29C41.64 46.17 41.19 46.04 40.74 45.91C40.62 45.94 40.49 45.96 40.37 45.96C39.91 45.96 39.47 45.76 39.14 45.43C34.33 43.9 29.81 41.92 25.91 39.61C19.34 43.5 11.28 46.32 3.37 47.7C3.11 57.63 2.96 68.67 5.81 77.91C9.01 88.25 15.4 94.77 25.91 98.39ZM107.54 33.48L38.31 33.48L41.59 42.51C44.56 43.37 47.35 44 50.37 44.46C51.2 44.59 51.82 45.3 51.84 46.15C52.02 52.93 52.22 60.3 51.5 67.42L89.19 67.42C92.68 67.42 95.65 65.49 97.11 62.25L109.06 35.92C109.18 35.66 109.24 35.37 109.22 35.08C109.2 34.79 109.11 34.51 108.96 34.27C108.81 34.02 108.6 33.82 108.35 33.68C108.1 33.55 107.82 33.47 107.54 33.48ZM49.7 17.89C49.7 17.7 49.86 17.54 50.05 17.54L79.47 17.54L79.47 29.97L49.7 29.97L49.7 17.89ZM83.25 3.5L97.44 3.5C97.63 3.5 97.78 3.66 97.78 3.85L97.78 29.97L82.9 29.97L82.9 3.85C82.9 3.66 83.06 3.5 83.25 3.5ZM21.55 20.61L21.55 23.62C21.55 24.39 20.26 25.29 18.6 25.29L5.71 25.29C4.05 25.29 2.76 24.39 2.76 23.62L2.76 21.84C2.76 21.07 4.05 20.18 5.71 20.18L17.3 20.18C17.45 20.2 17.55 20.29 17.92 20.29L20.9 20.25C21.26 20.34 21.49 20.51 21.55 20.61ZM89.19 70.93C94.05 70.93 98.18 68.24 100.23 63.72L112.18 37.39C113.76 33.92 111.28 29.97 107.54 29.97L101.22 29.97L101.22 3.85C101.22 1.73 99.52 0 97.44 0L83.25 0C81.16 0 79.47 1.73 79.47 3.85L79.47 14.03L50.05 14.03C47.96 14.03 46.27 15.76 46.27 17.89L46.27 29.97L37.05 29.97L34.25 22.24C33.02 18.85 29.95 16.67 26.42 16.67C26.38 16.67 26.34 16.67 26.31 16.67L21.21 16.74C20.92 16.69 20.64 16.67 20.35 16.67L5.71 16.67C2.13 16.67 -0.67 18.94 -0.67 21.84L-0.67 23.62C-0.67 26.52 2.13 28.79 5.71 28.79L18.6 28.79C22.18 28.79 24.99 26.52 24.99 23.62L24.97 20.2L26.42 20.18C28.53 20.18 30.29 21.43 31.03 23.46L37.43 41.15C33.55 39.74 29.94 38.02 26.8 36.07C26.53 35.9 26.22 35.81 25.91 35.81C25.59 35.81 25.28 35.9 25.01 36.07C18.26 40.26 9.72 43.19 1.44 44.46C1.04 44.52 0.68 44.72 0.41 45.03C0.14 45.34 -0.01 45.73 -0.02 46.15C-0.31 56.72 -0.63 68.71 2.54 78.96C6.1 90.49 13.57 97.99 25.38 101.91C25.72 102.02 26.09 102.02 26.44 101.91C37.44 98.26 44.68 91.49 48.5 81.25C49.25 81.35 50.56 81.31 51.35 81.31C47.49 86.83 51.36 94.54 58.02 94.54C64.69 94.54 68.53 86.81 64.68 81.31L81.62 81.31C77.77 86.81 81.61 94.54 88.28 94.54C94.94 94.54 98.8 86.83 94.95 81.31L101.5 81.31C102.45 81.31 103.22 80.53 103.22 79.56C103.22 78.59 102.45 77.81 101.5 77.81L49.62 77.81C50.24 75.58 50.71 73.28 51.06 70.93L89.19 70.93Z" fill="#8B5CF6" fill-opacity="1.000000" fill-rule="evenodd"/>
</svg>
