<svg width="113.000000" height="113.000000" viewBox="0 0 113 113" fill="none" xmlns="http://www.w3.org/2000/svg" xmlns:xlink="http://www.w3.org/1999/xlink">
	<desc>
			Created with Pixso.
	</desc>
	<defs/>
	<path id="Vector" d="M52.64 -0.67L-0.67 26.28L-0.67 88.19L60.06 112.66L60.08 112.66L60.08 112.65L112.66 81.69L112.66 19.79L52.64 -0.67Z" fill="#DDD6FE" fill-opacity="1.000000" fill-rule="nonzero"/>
	<path id="Vector" d="M112.66 19.79L52.64 -0.67L-0.67 26.28L-0.67 88.19L60.06 112.66L60.08 112.66L60.08 50.73L60.07 50.73L112.66 19.79Z" fill="#C4B5FD" fill-opacity="1.000000" fill-rule="nonzero"/>
	<path id="Vector" d="M60.08 50.73L60.08 112.66L60.06 112.66L-0.67 88.19L-0.67 26.28L6.47 29.16L60.08 50.73Z" fill="#8B5CF6" fill-opacity="1.000000" fill-rule="nonzero"/>
	<path id="Vector" d="M60.08 50.73L60.08 104.16L20.13 88.05C16.1 86.42 12.64 83.62 10.21 80.02C7.78 76.41 6.48 72.16 6.48 67.82L6.48 29.16L60.08 50.73Z" fill="#A78BFA" fill-opacity="1.000000" fill-rule="nonzero"/>
	<path id="Vector" d="M87.12 11.08L86.05 11.66L34.17 40.3L34.07 60.21L25.85 57.14L20.49 55.12L20.49 34.81L74.57 6.81L87.12 11.08Z" fill="#5B21B6" fill-opacity="1.000000" fill-rule="nonzero"/>
	<path id="Vector" d="M86.11 11.66L34.23 40.3L34.13 60.21L25.92 57.14L25.92 37.59L80.02 9.59L86.11 11.66Z" fill="#6D28D9" fill-opacity="1.000000" fill-rule="nonzero"/>
</svg>
