<svg width="137.000000" height="68.000000" viewBox="0 0 137 68" fill="none" xmlns="http://www.w3.org/2000/svg" xmlns:xlink="http://www.w3.org/1999/xlink">
	<desc>
			Created with Pixso.
	</desc>
	<defs/>
	<path id="Vector" d="M134.59 40.26L122.9 20.04C122.61 19.54 122.19 19.13 121.68 18.84C121.17 18.55 120.58 18.4 119.99 18.4L101.92 18.4L101.92 1.72C101.92 1.26 101.73 0.82 101.39 0.5C101.06 0.18 100.61 0 100.13 0L27.92 0C27.44 0 26.99 0.18 26.66 0.5C26.32 0.82 26.13 1.26 26.13 1.72L26.13 56.16C26.13 56.82 26.41 57.46 26.89 57.92C27.38 58.39 28.04 58.66 28.72 58.66L134.44 58.66C134.64 58.66 134.85 58.62 135.04 58.54C135.23 58.47 135.4 58.36 135.54 58.22C135.69 58.08 135.8 57.91 135.88 57.73C135.96 57.55 136 57.35 136 57.16L136 45.53C136 43.69 135.51 41.87 134.59 40.26Z" fill="#8B5CF6" fill-opacity="1.000000" fill-rule="nonzero"/>
	<path id="Vector" d="M136 45.53L136 53.31L113.44 53.31C112.05 53.31 110.71 52.77 109.73 51.82C108.75 50.87 108.19 49.58 108.19 48.24L108.19 18.4L119.99 18.4C120.59 18.4 121.17 18.55 121.68 18.84C122.19 19.13 122.61 19.54 122.9 20.04L134.59 40.26C135.51 41.87 136 43.69 136 45.53Z" fill="#A78BFA" fill-opacity="1.000000" fill-rule="nonzero"/>
	<path id="Vector" d="M128.54 58.66C128.55 60.58 127.94 62.44 126.79 64C125.61 65.63 123.93 66.85 121.98 67.49C120.03 68.14 117.92 68.16 115.96 67.57C114 66.97 112.28 65.79 111.07 64.19C109.85 62.58 109.2 60.65 109.2 58.66C109.2 56.19 110.22 53.82 112.03 52.07C113.85 50.32 116.31 49.34 118.87 49.34C121.43 49.34 123.89 50.32 125.71 52.07C127.52 53.82 128.54 56.19 128.54 58.66Z" fill="#A5B4FC" fill-opacity="1.000000" fill-rule="nonzero"/>
	<path id="Vector" d="M101.92 1.72L101.92 53.58L43.03 53.58C41.64 53.58 40.26 53.32 38.98 52.81C37.69 52.29 36.52 51.54 35.54 50.59C34.56 49.64 33.77 48.51 33.24 47.27C32.71 46.03 32.44 44.71 32.44 43.36L32.44 0L100.13 0C100.61 0 101.06 0.18 101.39 0.5C101.73 0.82 101.92 1.26 101.92 1.72Z" fill="#A78BFA" fill-opacity="1.000000" fill-rule="nonzero"/>
	<path id="Vector" d="M128.54 58.66C128.55 60.58 127.94 62.44 126.79 64C125.94 64.24 125.05 64.37 124.17 64.36C121.6 64.36 119.14 63.37 117.33 61.62C115.52 59.87 114.5 57.5 114.5 55.03C114.49 53.1 115.11 51.21 116.28 49.64C117.72 49.26 119.23 49.21 120.69 49.48C122.16 49.75 123.54 50.35 124.73 51.23C125.91 52.1 126.87 53.22 127.54 54.51C128.2 55.8 128.54 57.23 128.54 58.66Z" fill="#C4B5FD" fill-opacity="1.000000" fill-rule="nonzero"/>
	<path id="Vector" d="M66.17 58.66C66.17 60.4 65.66 62.1 64.71 63.58C63.76 65.06 62.4 66.25 60.79 67.02C59.18 67.79 57.37 68.11 55.58 67.94C53.79 67.78 52.08 67.13 50.64 66.08C49.21 65.03 48.11 63.61 47.47 61.99C46.82 60.37 46.66 58.61 47 56.9C47.34 55.19 48.17 53.61 49.39 52.34C50.61 51.06 52.17 50.13 53.91 49.67C54.75 49.42 55.62 49.3 56.5 49.31C57.77 49.31 59.03 49.55 60.2 50.02C61.38 50.49 62.45 51.18 63.34 52.05C64.24 52.92 64.95 53.95 65.44 55.09C65.92 56.22 66.17 57.44 66.17 58.66Z" fill="#A5B4FC" fill-opacity="1.000000" fill-rule="nonzero"/>
	<path id="Vector" d="M66.17 58.66C66.17 60.57 65.55 62.44 64.41 64C63.56 64.24 62.68 64.37 61.79 64.36C59.23 64.36 56.77 63.37 54.96 61.62C53.14 59.87 52.12 57.5 52.12 55.03C52.12 53.1 52.74 51.23 53.91 49.67C54.75 49.42 55.62 49.3 56.5 49.31C57.77 49.31 59.03 49.55 60.2 50.02C61.38 50.49 62.45 51.18 63.34 52.05C64.24 52.92 64.95 53.95 65.44 55.09C65.92 56.22 66.17 57.44 66.17 58.66Z" fill="#C4B5FD" fill-opacity="1.000000" fill-rule="nonzero"/>
	<path id="Vector" d="M34.67 44.72L7.27 44.72C6.7 44.72 6.15 44.5 5.74 44.11C5.34 43.72 5.11 43.19 5.11 42.64C5.11 42.09 5.34 41.56 5.74 41.17C6.15 40.78 6.7 40.56 7.27 40.56L34.67 40.56C35.24 40.56 35.79 40.78 36.2 41.17C36.6 41.56 36.83 42.09 36.83 42.64C36.83 43.19 36.6 43.72 36.2 44.11C35.79 44.5 35.24 44.72 34.67 44.72ZM56.5 35.25L18.27 35.25C17.7 35.25 17.15 35.03 16.75 34.64C16.34 34.25 16.11 33.72 16.11 33.17C16.11 32.62 16.34 32.09 16.75 31.69C17.15 31.3 17.7 31.08 18.27 31.08L56.5 31.08C57.08 31.08 57.63 31.3 58.03 31.69C58.43 32.09 58.66 32.62 58.66 33.17C58.66 33.72 58.43 34.25 58.03 34.64C57.63 35.03 57.08 35.25 56.5 35.25ZM17.08 24.25L2.15 24.25C1.58 24.25 1.03 24.03 0.63 23.64C0.22 23.25 0 22.72 0 22.17C0 21.62 0.22 21.09 0.63 20.7C1.03 20.31 1.58 20.09 2.15 20.09L17.08 20.09C17.66 20.09 18.2 20.31 18.61 20.7C19.01 21.09 19.24 21.62 19.24 22.17C19.24 22.72 19.01 23.25 18.61 23.64C18.2 24.03 17.66 24.25 17.08 24.25ZM41.02 12.75L14.67 12.75C14.1 12.75 13.55 12.53 13.14 12.14C12.74 11.75 12.51 11.22 12.51 10.67C12.51 10.12 12.74 9.59 13.14 9.2C13.55 8.81 14.1 8.59 14.67 8.59L41.02 8.59C41.59 8.59 42.14 8.81 42.55 9.2C42.95 9.59 43.18 10.12 43.18 10.67C43.18 11.22 42.95 11.75 42.55 12.14C42.14 12.53 41.59 12.75 41.02 12.75Z" fill="#A5B4FC" fill-opacity="1.000000" fill-rule="nonzero"/>
</svg>
