<svg width="13.000000" height="13.000000" viewBox="0 0 13 13" fill="none" xmlns="http://www.w3.org/2000/svg" xmlns:xlink="http://www.w3.org/1999/xlink">
	<desc>
			Created with Pixso.
	</desc>
	<defs/>
	<path id="Vector" d="M7.57 7.48C7.12 7.84 6.57 8.04 6 8.04C5.42 8.04 4.87 7.84 4.42 7.48C4.29 7.37 4.11 7.31 3.93 7.33C3.76 7.35 3.59 7.43 3.48 7.57C3.37 7.7 3.31 7.88 3.33 8.06C3.35 8.23 3.43 8.4 3.57 8.51C4.25 9.08 5.11 9.39 6 9.39C6.88 9.39 7.74 9.08 8.42 8.51C8.56 8.4 8.64 8.23 8.66 8.06C8.68 7.88 8.62 7.7 8.51 7.57C8.45 7.5 8.38 7.45 8.31 7.4C8.23 7.36 8.14 7.34 8.06 7.33C7.88 7.31 7.7 7.37 7.57 7.48ZM4.14 5.02C4.26 5.15 4.43 5.22 4.61 5.22C4.78 5.22 4.95 5.15 5.08 5.02C5.2 4.9 5.27 4.73 5.27 4.55C5.27 4.38 5.2 4.21 5.08 4.08C4.69 3.72 4.19 3.52 3.66 3.52C3.14 3.52 2.63 3.72 2.25 4.08C2.18 4.14 2.12 4.21 2.08 4.3C2.04 4.38 2.02 4.47 2.02 4.56C2.01 4.65 2.03 4.75 2.06 4.83C2.09 4.92 2.15 4.99 2.21 5.06C2.28 5.12 2.35 5.18 2.44 5.21C2.52 5.24 2.62 5.26 2.71 5.25C2.8 5.25 2.89 5.23 2.97 5.19C3.06 5.15 3.13 5.09 3.19 5.02C3.25 4.96 3.32 4.91 3.41 4.88C3.49 4.84 3.57 4.82 3.66 4.82C3.75 4.82 3.84 4.84 3.92 4.88C4 4.91 4.07 4.96 4.14 5.02ZM9.74 4.08C9.36 3.72 8.85 3.52 8.33 3.52C7.8 3.52 7.3 3.72 6.92 4.08C6.81 4.21 6.75 4.37 6.76 4.54C6.76 4.71 6.83 4.87 6.95 4.99C7.07 5.11 7.23 5.17 7.4 5.18C7.56 5.19 7.73 5.13 7.86 5.02C7.92 4.96 7.99 4.91 8.07 4.88C8.15 4.84 8.24 4.82 8.33 4.82C8.42 4.82 8.5 4.84 8.58 4.88C8.67 4.91 8.74 4.96 8.8 5.02C8.93 5.15 9.1 5.22 9.27 5.22C9.45 5.22 9.62 5.15 9.74 5.02C9.87 4.9 9.94 4.73 9.94 4.55C9.94 4.38 9.87 4.21 9.74 4.08ZM6 -0.67C4.68 -0.67 3.39 -0.28 2.29 0.45C1.19 1.18 0.34 2.23 -0.16 3.44C-0.67 4.66 -0.8 6 -0.54 7.3C-0.29 8.59 0.35 9.78 1.28 10.71C2.21 11.64 3.4 12.28 4.69 12.53C5.99 12.79 7.33 12.66 8.55 12.15C9.76 11.65 10.81 10.8 11.54 9.7C12.27 8.6 12.66 7.31 12.66 6C12.66 5.12 12.49 4.25 12.15 3.44C11.82 2.63 11.33 1.9 10.71 1.28C10.09 0.66 9.36 0.17 8.55 -0.16C7.74 -0.5 6.87 -0.67 6 -0.67ZM6 11.33C4.94 11.33 3.91 11.02 3.03 10.43C2.15 9.84 1.47 9.01 1.07 8.04C0.66 7.06 0.56 5.99 0.76 4.95C0.97 3.92 1.48 2.97 2.22 2.22C2.97 1.48 3.92 0.97 4.95 0.76C5.99 0.56 7.06 0.66 8.04 1.07C9.01 1.47 9.84 2.15 10.43 3.03C11.02 3.91 11.33 4.94 11.33 6C11.33 7.41 10.77 8.77 9.77 9.77C8.77 10.77 7.41 11.33 6 11.33Z" fill="#F9FAFB" fill-opacity="1.000000" fill-rule="nonzero"/>
</svg>
