<svg width="275.542480" height="178.359375" viewBox="0 0 275.542 178.359" fill="none" xmlns="http://www.w3.org/2000/svg" xmlns:xlink="http://www.w3.org/1999/xlink">
	<desc>
			Created with Pixso.
	</desc>
	<defs/>
	<g opacity="0.100000">
		<path id="Equipment" d="M162.57 140.12Q162.6 140.17 155.07 146.19L155.07 176.66L275.54 176.66L275.54 143.32L210.73 143.32Q237.86 122.4 255.38 100.48Q267.72 85 271.37 67.69Q272.9 60.43 272.9 52.85Q272.9 35.84 265.32 23.47Q262.41 18.71 258.37 14.64Q257.98 14.25 257.57 13.86Q243.07 0 215.3 0Q199.26 0 186.02 6.08Q185.57 6.29 185.13 6.5Q180.97 8.5 177.31 11.18Q169.05 17.22 163.33 26.71Q155.07 40.37 154.6 60.76L194.15 60.76Q194.15 48.28 199.31 41.42Q201.57 38.45 204.55 36.77Q208.46 34.57 213.6 34.57Q220.98 34.57 225.35 38.19Q226.39 39.06 227.26 40.13Q231.83 45.64 231.83 55.48Q231.83 68.43 222.45 82.14Q213.14 95.8 199.54 108.28Q186.01 120.76 162.51 140.15Q162.56 140.12 162.57 140.12ZM15.93 24.02Q0 47.75 0 89.06Q0 130.84 15.93 154.62Q20.19 160.94 25.82 165.57Q41.37 178.35 67.44 178.35Q93.62 178.35 109.16 165.5Q114.73 160.89 118.94 154.62Q134.88 130.84 134.88 89.06Q134.88 47.75 118.94 24.02Q114.7 17.69 109.07 13.04Q93.54 0.23 67.44 0.23Q41.45 0.23 25.91 12.97Q20.22 17.64 15.93 24.02ZM89.29 51.73Q94.57 64.8 94.57 89.06Q94.57 105.41 92.63 116.07Q90.76 126.73 84.84 133.35Q84.08 134.21 83.23 134.95Q77.48 139.92 67.44 139.92Q57.52 139.92 51.76 135.03Q50.84 134.25 50.03 133.35Q44.17 126.73 42.24 116.07Q40.31 105.41 40.31 89.06Q40.31 64.8 45.58 51.73Q47.58 46.83 51.16 43.77Q57.11 38.67 67.44 38.67Q77.85 38.67 83.8 43.82Q87.33 46.87 89.29 51.73Z" fill="#FFFFFF" fill-opacity="1.000000" fill-rule="evenodd"/>
	</g>
</svg>
