<svg width="106.000000" height="39.000000" viewBox="0 0 106 39" fill="none" xmlns="http://www.w3.org/2000/svg" xmlns:xlink="http://www.w3.org/1999/xlink">
	<desc>
			Created with Pixso.
	</desc>
	<defs/>
	<path id="M" d="M2.02 31L2.02 7.72L8.09 7.72L14.5 23.36L14.77 23.36L21.17 7.72L27.25 7.72L27.25 31L22.47 31L22.47 15.85L22.28 15.85L16.25 30.88L13 30.88L6.99 15.79L6.79 15.79L6.79 31L2.02 31Z" fill="#FFFFFF" fill-opacity="1.000000" fill-rule="evenodd"/>
	<path id="N" d="M48.59 7.72L53.49 7.72L53.49 31L49.24 31L39.11 16.35L38.94 16.35L38.94 31L34.02 31L34.02 7.72L38.34 7.72L48.38 22.36L48.59 22.36L48.59 7.72Z" fill="#FFFFFF" fill-opacity="1.000000" fill-rule="evenodd"/>
	<path id="T" d="M66.25 11.78L59.13 11.78L59.13 7.72L78.25 7.72L78.25 11.78L71.12 11.78L71.12 31L66.25 31L66.25 11.78Z" fill="#FFFFFF" fill-opacity="1.000000" fill-rule="evenodd"/>
	<path id="N" d="M98.59 7.72L103.49 7.72L103.49 31L99.24 31L89.11 16.35L88.94 16.35L88.94 31L84.02 31L84.02 7.72L88.34 7.72L98.38 22.36L98.59 22.36L98.59 7.72Z" fill="#FFFFFF" fill-opacity="1.000000" fill-rule="evenodd"/>
</svg>
