<svg width="113.000000" height="37.000000" viewBox="0 0 113 37" fill="none" xmlns="http://www.w3.org/2000/svg" xmlns:xlink="http://www.w3.org/1999/xlink">
	<desc>
			Created with Pixso.
	</desc>
	<defs>
		<clipPath id="clip8304_79">
			<rect rx="-0.500000" width="112.000000" height="36.000000" transform="translate(0.500000 0.500000)" fill="white" fill-opacity="0"/>
		</clipPath>
	</defs>
	<g clip-path="url(#clip8304_79)">
		<path d="M26.53 6.98L26.53 6.34Q25.78 6.37 24.68 6.4Q23.58 6.43 22.46 6.43L20.96 6.43L14.07 24.87L7.03 6.34Q6.53 6.37 5.77 6.4Q5.02 6.43 4.32 6.43Q3.52 6.43 2.7 6.4Q1.89 6.37 1.34 6.34L1.34 6.98Q2.42 7.01 2.99 7.22Q3.27 7.33 3.46 7.52Q3.65 7.71 3.74 7.99Q3.93 8.55 3.93 9.73L3.93 25.28Q3.93 26.43 3.74 27.09Q3.62 27.5 3.35 27.76Q3.2 27.92 2.99 28.02Q2.42 28.29 1.34 28.35L1.34 29Q1.89 28.93 2.7 28.92Q3.52 28.9 4.32 28.9Q5.14 28.9 6.07 28.92Q7 28.93 7.58 29L7.58 28.35Q6.33 28.29 5.71 28.02Q5.4 27.89 5.2 27.66Q4.98 27.43 4.87 27.09Q4.67 26.43 4.67 25.28L4.67 8.39L12.73 29.15L13.25 29.15L20.96 8.43L20.96 25.6Q20.96 26.75 20.76 27.33Q20.66 27.63 20.46 27.83Q20.28 28.01 20.01 28.1Q19.45 28.29 18.36 28.35L18.36 29Q19.03 28.93 20.12 28.92Q21.21 28.9 22.46 28.9Q23.58 28.9 24.68 28.92Q25.78 28.93 26.53 29L26.53 28.35Q25.43 28.29 24.87 28.1Q24.62 28.02 24.44 27.85Q24.23 27.65 24.12 27.33Q23.93 26.75 23.93 25.6L23.93 9.73Q23.93 8.55 24.12 7.99Q24.22 7.7 24.41 7.51Q24.6 7.32 24.87 7.22Q25.43 7.01 26.53 6.98Z" fill="#FFFFFF" fill-opacity="1.000000" fill-rule="evenodd"/>
		<path d="M53.43 6.98L53.43 6.34Q52.92 6.37 52.1 6.4Q51.29 6.43 50.46 6.43Q49.66 6.43 48.71 6.4Q47.77 6.37 47.2 6.34L47.2 6.98Q48.44 7.01 49.07 7.3Q49.4 7.46 49.62 7.71Q49.8 7.93 49.89 8.23Q50.1 8.87 50.1 10.05L50.1 23.75L38.81 6.34Q38.3 6.37 37.66 6.4Q37.02 6.43 36.32 6.43Q35.52 6.43 34.7 6.4Q33.89 6.37 33.34 6.34L33.34 6.98Q34.42 7.01 34.99 7.22Q35.27 7.33 35.46 7.52Q35.65 7.71 35.74 7.99Q35.93 8.55 35.93 9.73L35.93 25.28Q35.93 26.43 35.74 27.09Q35.62 27.5 35.35 27.76Q35.2 27.92 34.99 28.02Q34.42 28.29 33.34 28.35L33.34 29Q33.89 28.93 34.7 28.92Q35.52 28.9 36.32 28.9Q37.14 28.9 38.07 28.92Q39 28.93 39.58 29L39.58 28.35Q38.33 28.29 37.71 28.02Q37.4 27.89 37.2 27.66Q36.98 27.43 36.87 27.09Q36.67 26.43 36.67 25.28L36.67 8.39L50.1 29.15L50.85 29.15L50.85 10.05Q50.85 8.87 51.03 8.23Q51.15 7.84 51.41 7.58Q51.57 7.41 51.78 7.3Q52.35 7.01 53.43 6.98Z" fill="#FFFFFF" fill-opacity="1.000000" fill-rule="evenodd"/>
		<path d="M76.76 8.7Q76.81 7.56 76.94 6.34Q75.63 6.37 74.03 6.4Q72.42 6.43 70.84 6.43L65.03 6.43Q63.43 6.43 61.85 6.4Q60.27 6.37 58.92 6.34Q59.05 7.56 59.1 8.7Q59.14 9.83 59.14 10.43Q59.14 11.21 59.13 11.88Q59.11 12.55 59.05 13.06L59.78 13.06Q60.01 10.82 60.39 9.53Q60.7 8.47 61.4 7.9Q61.57 7.76 61.75 7.65Q62.73 7.07 64.71 7.07L66.44 7.07L66.44 25.28Q66.44 26.57 66.2 27.21Q66.11 27.46 65.94 27.65Q65.68 27.94 65.26 28.07Q64.56 28.29 63.21 28.35L63.21 29Q63.98 28.93 65.25 28.92Q66.51 28.9 67.95 28.9Q69.26 28.9 70.53 28.92Q71.82 28.93 72.65 29L72.65 28.35Q71.31 28.29 70.6 28.07Q70.18 27.94 69.93 27.65Q69.76 27.46 69.66 27.21Q69.42 26.57 69.42 25.28L69.42 7.07L71.14 7.07Q73.17 7.07 74.12 7.65Q74.28 7.75 74.42 7.86Q75.14 8.44 75.46 9.53Q75.85 10.82 76.07 13.06L76.81 13.06Q76.78 12.55 76.75 11.88Q76.71 11.21 76.71 10.43Q76.71 9.83 76.76 8.7Z" fill="#FFFFFF" fill-opacity="1.000000" fill-rule="evenodd"/>
		<path d="M103.43 6.98L103.43 6.34Q102.93 6.37 102.1 6.4Q101.29 6.43 100.46 6.43Q99.66 6.43 98.71 6.4Q97.77 6.37 97.2 6.34L97.2 6.98Q98.44 7.01 99.07 7.3Q99.4 7.46 99.62 7.71Q99.8 7.93 99.89 8.23Q100.1 8.87 100.1 10.05L100.1 23.75L88.81 6.34Q88.3 6.37 87.66 6.4Q87.02 6.43 86.32 6.43Q85.52 6.43 84.7 6.4Q83.89 6.37 83.34 6.34L83.34 6.98Q84.42 7.01 84.99 7.22Q85.27 7.33 85.46 7.52Q85.65 7.71 85.74 7.99Q85.93 8.55 85.93 9.73L85.93 25.28Q85.93 26.43 85.74 27.09Q85.62 27.5 85.35 27.76Q85.2 27.92 84.99 28.02Q84.42 28.29 83.34 28.35L83.34 29Q83.89 28.93 84.7 28.92Q85.52 28.9 86.32 28.9Q87.14 28.9 88.07 28.92Q89 28.93 89.58 29L89.58 28.35Q88.33 28.29 87.71 28.02Q87.4 27.89 87.2 27.66Q86.98 27.43 86.87 27.09Q86.67 26.43 86.67 25.28L86.67 8.39L100.1 29.15L100.85 29.15L100.85 10.05Q100.85 8.87 101.03 8.23Q101.15 7.84 101.41 7.58Q101.57 7.41 101.78 7.3Q102.35 7.01 103.43 6.98Z" fill="#FFFFFF" fill-opacity="1.000000" fill-rule="evenodd"/>
	</g>
</svg>
