<svg width="20.918457" height="17.000000" viewBox="0 0 20.9185 17" fill="none" xmlns="http://www.w3.org/2000/svg" xmlns:xlink="http://www.w3.org/1999/xlink">
	<desc>
			Created with Pixso.
	</desc>
	<defs/>
	<path id="Vector" d="M20.91 2.01C20.14 2.35 19.32 2.58 18.45 2.68C19.33 2.15 20.02 1.31 20.34 0.31C19.51 0.8 18.59 1.16 17.61 1.35C16.83 0.52 15.71 0 14.48 0C12.11 0 10.19 1.92 10.19 4.29C10.19 4.62 10.22 4.95 10.3 5.26C6.73 5.09 3.57 3.38 1.45 0.78C1.08 1.41 0.87 2.15 0.87 2.94C0.87 4.43 1.63 5.74 2.78 6.51C2.08 6.49 1.41 6.29 0.84 5.97C0.84 5.99 0.84 6.01 0.84 6.03C0.84 8.11 2.31 9.84 4.28 10.24C3.92 10.33 3.54 10.39 3.15 10.39C2.87 10.39 2.6 10.36 2.34 10.31C2.89 12.01 4.47 13.26 6.35 13.29C4.88 14.44 3.03 15.13 1.02 15.13C0.67 15.13 0.33 15.11 0 15.07C1.89 16.28 4.15 17 6.57 17C14.47 17 18.78 10.46 18.78 4.78C18.78 4.6 18.78 4.41 18.77 4.23C19.61 3.62 20.34 2.87 20.91 2.01Z" fill="#FFFFFF" fill-opacity="1.000000" fill-rule="nonzero"/>
</svg>
