<svg width="277.710449" height="180.761719" viewBox="0 0 277.71 180.762" fill="none" xmlns="http://www.w3.org/2000/svg" xmlns:xlink="http://www.w3.org/1999/xlink">
	<desc>
			Created with Pixso.
	</desc>
	<defs/>
	<g opacity="0.100000">
		<path id="Equipment" d="M169.05 19.86Q158.69 32.88 157.94 53.55L198.02 53.55Q198.66 46.06 202.43 40.82Q202.79 40.32 203.17 39.84Q204.01 38.8 205.01 37.96Q209.33 34.33 216.71 34.33Q223.84 34.33 228.37 37.76Q229.21 38.39 229.95 39.14Q230.56 39.75 231.1 40.42Q234.76 45.04 234.76 52.55Q234.76 60.26 230.94 64.62Q229.38 66.39 227.2 67.61Q219.64 71.77 207.39 71.77L199.72 71.77L199.72 105.11L207.39 105.11Q223.45 105.11 230.77 110.27Q232.38 111.4 233.63 112.84Q238.1 117.96 238.1 126.97Q238.1 134.13 234.76 139.02Q233.95 140.21 232.94 141.27Q232.14 142.11 231.23 142.81Q226.32 146.66 218.41 146.66Q208.57 146.66 202.89 141.8Q202.21 141.21 201.59 140.56Q201.06 139.99 200.58 139.39Q195.83 133.43 195.62 123.86L155.77 123.86Q156.56 147.83 168.8 161.67Q171.13 164.31 173.88 166.58Q173.92 166.61 173.97 166.65Q191.12 180.76 219.87 180.76Q237.86 180.76 250.93 174.25Q261.33 169.08 267.79 160.82Q269.45 158.7 270.85 156.38Q271.72 154.93 272.48 153.42Q277.71 143.06 277.71 130.07Q277.71 113.63 269.81 103.1Q269.77 103.05 269.74 103Q267.62 100.16 265.09 97.76Q258.17 91.17 248.17 87.83L248.17 86.89Q249.28 86.52 250.35 86.07Q259.55 82.28 266.63 73.35Q267 72.89 267.35 72.42Q274.6 62.66 274.6 47.51Q274.6 38.17 271.39 30.1Q269.99 26.59 267.98 23.32Q266.98 21.68 265.84 20.15Q259.42 11.54 248.53 6.26Q235.69 0 217.71 0Q191.92 0 176.29 12.6Q175.48 13.25 174.7 13.94Q171.59 16.67 169.05 19.86ZM15.93 24.25Q0 47.98 0 89.29Q0 131.07 15.93 154.86Q20.19 161.17 25.82 165.8Q41.37 178.59 67.44 178.59Q93.62 178.59 109.16 165.73Q114.73 161.12 118.94 154.86Q134.88 131.07 134.88 89.29Q134.88 47.98 118.94 24.25Q114.7 17.92 109.07 13.28Q93.54 0.46 67.44 0.46Q41.45 0.46 25.91 13.21Q20.22 17.87 15.93 24.25ZM89.29 51.97Q94.57 65.03 94.57 89.29Q94.57 105.64 92.63 116.3Q90.76 126.97 84.84 133.59Q84.08 134.44 83.23 135.18Q77.48 140.15 67.44 140.15Q57.52 140.15 51.76 135.26Q50.84 134.49 50.03 133.59Q44.17 126.97 42.24 116.3Q40.31 105.64 40.31 89.29Q40.31 65.03 45.58 51.97Q47.58 47.06 51.16 44Q57.11 38.9 67.44 38.9Q77.85 38.9 83.8 44.05Q87.33 47.11 89.29 51.97Z" fill="#FFFFFF" fill-opacity="1.000000" fill-rule="evenodd"/>
	</g>
</svg>
