<svg width="218.647949" height="178.828125" viewBox="0 0 218.648 178.828" fill="none" xmlns="http://www.w3.org/2000/svg" xmlns:xlink="http://www.w3.org/1999/xlink">
	<desc>
			Created with Pixso.
	</desc>
	<defs/>
	<g opacity="0.100000">
		<path id="Equipment" d="M15.93 23.78Q0 47.51 0 88.82Q0 130.6 15.93 154.39Q20.19 160.7 25.82 165.33Q41.37 178.12 67.44 178.12Q93.62 178.12 109.16 165.26Q114.73 160.65 118.94 154.39Q134.88 130.6 134.88 88.82Q134.88 47.51 118.94 23.78Q114.7 17.45 109.07 12.81Q93.54 0 67.44 0Q41.45 0 25.91 12.74Q20.22 17.41 15.93 23.78ZM152.2 3.63L152.2 41.77L175.93 41.77L175.93 178.82L218.64 178.82L218.64 3.63L152.2 3.63ZM89.29 51.5Q94.57 64.57 94.57 88.82Q94.57 105.17 92.63 115.84Q90.76 126.5 84.84 133.12Q84.08 133.97 83.23 134.71Q77.48 139.68 67.44 139.68Q57.52 139.68 51.76 134.79Q50.84 134.02 50.03 133.12Q44.17 126.5 42.24 115.84Q40.31 105.17 40.31 88.82Q40.31 64.57 45.58 51.5Q47.58 46.6 51.16 43.53Q57.11 38.43 67.44 38.43Q77.85 38.43 83.8 43.59Q87.33 46.64 89.29 51.5Z" fill="#FFFFFF" fill-opacity="1.000000" fill-rule="evenodd"/>
	</g>
</svg>
