<svg width="20.000000" height="19.999981" viewBox="0 0 20 20" fill="none" xmlns="http://www.w3.org/2000/svg" xmlns:xlink="http://www.w3.org/1999/xlink">
	<desc>
			Created with Pixso.
	</desc>
	<defs/>
	<path id="Vector" d="M5.8 0L14.2 0C17.4 0 20 2.59 20 5.8L20 14.2C20 17.4 17.4 20 14.2 20L5.8 20C2.59 20 0 17.4 0 14.2L0 5.8C0 2.59 2.59 0 5.8 0ZM5.59 1.99C3.61 1.99 2 3.61 2 5.59L2 14.4C2 16.38 3.61 18 5.59 18L14.4 18C16.38 18 18 16.38 18 14.4L18 5.59C18 3.61 16.38 1.99 14.4 1.99L5.59 1.99ZM15.25 3.49C15.94 3.49 16.5 4.05 16.5 4.74C16.5 5.44 15.94 5.99 15.25 5.99C14.55 5.99 14 5.44 14 4.74C14 4.05 14.55 3.49 15.25 3.49ZM10 4.99C12.76 4.99 15 7.23 15 9.99C15 12.76 12.76 15 10 15C7.23 15 5 12.76 5 9.99C5 7.23 7.23 4.99 10 4.99ZM10 6.99C8.34 6.99 7 8.34 7 9.99C7 11.65 8.34 13 10 13C11.65 13 13 11.65 13 9.99C13 8.34 11.65 6.99 10 6.99Z" fill="#FFFFFF" fill-opacity="1.000000" fill-rule="nonzero"/>
</svg>
