<svg width="17.000000" height="16.000000" viewBox="0 0 17 16" fill="none" xmlns="http://www.w3.org/2000/svg" xmlns:xlink="http://www.w3.org/1999/xlink">
	<desc>
			Created with Pixso.
	</desc>
	<defs>
		<clipPath id="clip9_0">
			<rect width="17.000000" height="16.000000" fill="white" fill-opacity="0"/>
		</clipPath>
	</defs>
	<rect width="17.000000" height="16.000000" fill="#FFFFFF" fill-opacity="0"/>
	<g clip-path="url(#clip9_0)">
		<path d="M3.85974 15.999L3.85974 5.20386L0.215088 5.20386L0.215088 15.999L3.85974 15.999ZM2.03784 3.729C3.30884 3.729 4.09998 2.90015 4.09998 1.86426C4.07629 0.804932 3.30884 -0.000976562 2.06201 -0.000976562C0.815308 -0.000976562 0 0.804932 0 1.86426C0 2.90015 0.790894 3.729 2.01404 3.729L2.03772 3.729L2.03784 3.729ZM5.87708 15.999L9.52173 15.999L9.52173 9.97046C9.52173 9.64795 9.54541 9.32544 9.64172 9.09497C9.90515 8.4502 10.5049 7.78271 11.5117 7.78271C12.8306 7.78271 13.3582 8.77246 13.3582 10.2239L13.3582 15.999L17.0027 15.999L17.0027 9.80908C17.0027 6.49316 15.2046 4.95044 12.8065 4.95044C10.8403 4.95044 9.97705 6.03247 9.49756 6.76929L9.52185 6.76929L9.52185 5.20361L5.8772 5.20361C5.92493 6.21655 5.8772 15.9988 5.8772 15.9988L5.87708 15.999Z" fill="#000000" fill-opacity="1.000000" fill-rule="nonzero"/>
	</g>
</svg>
