<svg width="24.000000" height="18.000000" viewBox="0 0 24 18" fill="none" xmlns="http://www.w3.org/2000/svg" xmlns:xlink="http://www.w3.org/1999/xlink">
	<desc>
			Created with Pixso.
	</desc>
	<defs/>
	<path d="M21.6 0L2.40002 0C1.07996 0 0 1.01245 0 2.25L0 15.75C0 16.9875 1.07996 18 2.40002 18L21.6 18C22.92 18 24 16.9875 24 15.75L24 2.25C24 1.01245 22.92 0 21.6 0ZM2.40002 1L21.6 1Q21.7919 1 21.9724 1.04541Q22.0687 1.06958 22.1619 1.10645Q22.3364 1.17603 22.4828 1.28369Q22.5499 1.33325 22.6111 1.39038Q22.7694 1.53882 22.866 1.72021Q22.8839 1.75415 22.8998 1.78906Q22.957 1.91553 22.9816 2.04785Q23 2.14722 23 2.25L23 15.75Q23 15.8528 22.9816 15.9521Q22.957 16.0845 22.8998 16.2109Q22.8839 16.2458 22.866 16.2798Q22.7694 16.4612 22.6111 16.6096Q22.5499 16.6667 22.4829 16.7161Q22.3364 16.824 22.1619 16.8936Q22.0687 16.9304 21.9723 16.9546Q21.7919 17 21.6 17L2.40002 17Q2.20813 17 2.02771 16.9548Q1.93127 16.9304 1.83813 16.8936Q1.66357 16.824 1.51709 16.7161Q1.45007 16.6667 1.38892 16.6096Q1.23059 16.4612 1.13416 16.2798Q1.11609 16.2458 1.10022 16.2109Q1.04297 16.0845 1.01843 15.9521Q1 15.8528 1 15.75L1 2.25Q1 2.14722 1.01843 2.04785Q1.04297 1.91553 1.10022 1.78906Q1.11609 1.75415 1.13403 1.72021Q1.23059 1.53882 1.38892 1.39038Q1.45007 1.33325 1.51709 1.28394Q1.66357 1.17603 1.83813 1.10645Q1.93127 1.06958 2.02759 1.04541Q2.20813 1 2.40002 1Z" fill="#000000" fill-opacity="1.000000" fill-rule="evenodd"/>
	<path d="M22.8478 1.0625L12 9.93799L1.15222 1.0625" stroke="#000000" stroke-opacity="1.000000" stroke-width="1.000000" stroke-linejoin="round" stroke-linecap="round"/>
</svg>
