<svg width="14.000000" height="17.000000" viewBox="0 0 14 17" fill="none" xmlns="http://www.w3.org/2000/svg" xmlns:xlink="http://www.w3.org/1999/xlink">
	<desc>
			Created with Pixso.
	</desc>
	<defs>
		<clipPath id="clip7_23">
			<rect id="secure" width="14.000000" height="17.000000" fill="white" fill-opacity="0"/>
		</clipPath>
	</defs>
	<rect id="secure" width="14.000000" height="17.000000" fill="#FFFFFF" fill-opacity="0"/>
	<g clip-path="url(#clip7_23)">
		<path id="Vector" d="M7.18997 16.967C7.06677 17.0109 6.93219 17.0109 6.80899 16.967C-0.171021 14.498 -0.0620117 8.64899 0.0179749 4.37701C0.0259705 3.91803 0.0339661 3.48401 0.0339661 3.065C0.0326538 2.90869 0.0933838 2.75824 0.202881 2.6467C0.312378 2.53513 0.46167 2.47159 0.617981 2.47C3.11197 2.47 5.00998 1.73801 6.59299 0.167999C6.6463 0.114532 6.70966 0.0720825 6.77942 0.0431213C6.84918 0.0141602 6.92395 -0.000732422 6.99948 -0.000732422C7.07501 -0.000732422 7.14978 0.0141602 7.21954 0.0431213C7.28931 0.0720825 7.35266 0.114532 7.40598 0.167999C8.98898 1.73801 10.888 2.47 13.383 2.47C13.5391 2.47186 13.6881 2.53552 13.7974 2.64703C13.9067 2.75858 13.9673 2.90887 13.966 3.065C13.966 3.48499 13.974 3.91803 13.983 4.37701C14.063 8.64801 14.172 14.498 7.19098 16.967L7.18997 16.967ZM12.817 4.40002C12.812 4.14203 12.807 3.89203 12.805 3.64801C10.467 3.547 8.59897 2.82501 6.99997 1.40302C5.39996 2.82501 3.53299 3.547 1.19699 3.64801L1.18399 4.40002C1.10397 8.69403 1.01398 13.555 6.99997 15.774C12.987 13.554 12.897 8.69403 12.816 4.40002L12.817 4.40002ZM9.83298 6.43298C9.94257 6.54578 10.0039 6.69678 10.0039 6.854C10.0039 7.01123 9.94257 7.16229 9.83298 7.27502L6.60599 10.567C6.55246 10.6223 6.48834 10.6663 6.41748 10.6964C6.34662 10.7264 6.27045 10.7419 6.19348 10.7419C6.11652 10.7419 6.04031 10.7264 5.96945 10.6964C5.89859 10.6663 5.8345 10.6223 5.78098 10.567L4.16699 8.91998C4.05716 8.80737 3.9957 8.65631 3.9957 8.49902C3.9957 8.34167 4.05716 8.19061 4.16699 8.078C4.22058 8.02283 4.2847 7.97894 4.35556 7.94897C4.42639 7.91901 4.50256 7.90363 4.57947 7.90363C4.6564 7.90363 4.73254 7.91901 4.80341 7.94897C4.87427 7.97894 4.93839 8.02283 4.99197 8.078L6.19299 9.30402L9.00797 6.43201C9.06158 6.37683 9.1257 6.33295 9.19656 6.30298C9.2674 6.27301 9.34354 6.25757 9.42047 6.25757C9.49741 6.25757 9.57355 6.27301 9.64441 6.30298C9.71527 6.33295 9.77939 6.37683 9.83298 6.43201L9.83298 6.43298Z" fill="#787878" fill-opacity="1.000000" fill-rule="nonzero"/>
	</g>
</svg>
