<svg width="18.000000" height="14.000000" viewBox="0 0 18 14" fill="none" xmlns="http://www.w3.org/2000/svg" xmlns:xlink="http://www.w3.org/1999/xlink">
	<desc>
			Created with Pixso.
	</desc>
	<defs>
		<clipPath id="clip9_2">
			<rect width="18.000000" height="14.000000" fill="white" fill-opacity="0"/>
		</clipPath>
	</defs>
	<rect width="18.000000" height="14.000000" fill="#FFFFFF" fill-opacity="0"/>
	<g clip-path="url(#clip9_2)">
		<path d="M17.719 1.65625C17.0673 1.9375 16.3672 2.12769 15.6312 2.21289C16.3823 1.77563 16.9579 1.08276 17.2295 0.258057C16.516 0.669922 15.7351 0.959961 14.9208 1.11548C14.2581 0.428711 13.313 0 12.2675 0C10.2606 0 8.63306 1.58179 8.63306 3.53394C8.63306 3.81055 8.66516 4.08032 8.72681 4.33936C5.70581 4.19189 3.02747 2.78491 1.23474 0.647217C0.921631 1.16919 0.742432 1.77637 0.742432 2.42407C0.742432 3.6499 1.38428 4.73145 2.3595 5.36523C1.7821 5.34766 1.21753 5.19629 0.712769 4.92334L0.712769 4.96802C0.712769 6.68042 1.96558 8.10815 3.62854 8.43286C3.323 8.51416 3.00244 8.55688 2.67078 8.55688C2.43628 8.55688 2.20874 8.53516 1.98645 8.49463C2.4491 9.89819 3.7915 10.9197 5.38159 10.9485C4.13757 11.8967 2.57007 12.4619 0.867554 12.4619C0.574341 12.4619 0.284546 12.4448 0 12.4116C1.60889 13.4146 3.51917 14 5.5719 14C12.2576 14 15.9139 8.61499 15.9139 3.94531C15.9139 3.79199 15.9105 3.63965 15.903 3.48804C16.6154 2.98706 17.2302 2.36694 17.719 1.65625Z" fill="#000000" fill-opacity="1.000000" fill-rule="nonzero"/>
	</g>
</svg>
