<svg width="113.000000" height="136.000000" viewBox="0 0 113 136" fill="none" xmlns="http://www.w3.org/2000/svg" xmlns:xlink="http://www.w3.org/1999/xlink">
	<desc>
			Created with Pixso.
	</desc>
	<defs/>
	<path id="Vector" d="M48.59 86.17C48.04 85.54 47.32 85.09 46.53 84.87C45.73 84.65 44.89 84.67 44.1 84.93L36.42 87.45C36 87.59 35.55 87.63 35.11 87.59C34.67 87.54 34.25 87.39 33.87 87.17C33.49 86.94 33.15 86.63 32.89 86.26C32.63 85.9 32.45 85.48 32.36 85.03L30.63 76.91C30.46 76.08 30.05 75.31 29.47 74.71C28.89 74.11 28.15 73.7 27.34 73.51L26.98 73.43L-0.67 115.2L21.85 113.65L28.12 136L56.37 93.38C55.93 93.38 55.49 93.29 55.09 93.11C54.68 92.92 54.32 92.65 54.03 92.31L48.59 86.17Z" fill="#A78BFA" fill-opacity="1.000000" fill-rule="nonzero"/>
	<path id="Vector" d="M48.59 86.17C48.19 85.71 47.7 85.34 47.15 85.09C46.6 84.84 46.01 84.7 45.41 84.7C44.97 84.7 44.53 84.77 44.1 84.91L36.42 87.44C36 87.58 35.55 87.62 35.11 87.57C34.67 87.53 34.25 87.38 33.87 87.16C33.48 86.93 33.15 86.62 32.89 86.25C32.63 85.88 32.45 85.46 32.35 85.02L31.5 80.99L8.72 114.55L21.85 113.65L25.5 126.68L51.09 88.99L48.59 86.17ZM63.39 86.17C63.94 85.54 64.66 85.09 65.46 84.87C66.25 84.65 67.1 84.67 67.88 84.93L75.57 87.45C75.99 87.59 76.43 87.63 76.87 87.59C77.31 87.54 77.73 87.39 78.12 87.17C78.5 86.94 78.83 86.63 79.09 86.26C79.35 85.9 79.53 85.48 79.63 85.03L81.35 76.9C81.53 76.08 81.93 75.32 82.52 74.72C83.1 74.12 83.84 73.7 84.64 73.52L85 73.44L112.66 115.2L90.14 113.65L83.87 136L55.61 93.38C56.06 93.38 56.49 93.29 56.9 93.11C57.3 92.92 57.66 92.65 57.96 92.31L63.39 86.17Z" fill="#A78BFA" fill-opacity="1.000000" fill-rule="nonzero"/>
	<path id="Vector" d="M63.39 86.17C63.94 85.54 64.66 85.09 65.46 84.87C66.25 84.65 67.1 84.67 67.88 84.93L75.57 87.45C75.99 87.59 76.43 87.63 76.87 87.59C77.31 87.54 77.73 87.39 78.12 87.17C78.5 86.94 78.83 86.63 79.09 86.26C79.35 85.9 79.53 85.48 79.63 85.03L80.48 81L103.26 114.55L90.13 113.65L86.47 126.68L60.89 88.99L63.39 86.17Z" fill="#A78BFA" fill-opacity="1.000000" fill-rule="nonzero"/>
	<path id="Vector" d="M67.16 89.77L74.54 92.19C75.6 92.54 76.72 92.65 77.82 92.53C78.93 92.41 80 92.05 80.96 91.47C81.92 90.9 82.76 90.12 83.42 89.2C84.07 88.27 84.54 87.21 84.77 86.09L86.42 78.3L87.99 77.95L85 73.44L84.64 73.52C83.83 73.7 83.1 74.12 82.52 74.72C81.93 75.32 81.53 76.08 81.35 76.91L79.63 85.03C79.54 85.48 79.35 85.9 79.09 86.26C78.83 86.63 78.5 86.94 78.12 87.17C77.74 87.4 77.31 87.54 76.87 87.59C76.43 87.64 75.99 87.59 75.57 87.45L67.88 84.93C67.1 84.67 66.26 84.65 65.46 84.87C64.67 85.09 63.95 85.54 63.39 86.17L57.96 92.31C57.72 92.62 57.43 92.87 57.09 93.04C56.75 93.21 56.37 93.3 55.99 93.3C55.61 93.3 55.24 93.21 54.9 93.04C54.56 92.87 54.26 92.62 54.03 92.31L48.6 86.17C48.19 85.71 47.7 85.34 47.15 85.09C46.61 84.84 46.01 84.71 45.41 84.7C44.97 84.7 44.53 84.77 44.11 84.91L36.42 87.44C36 87.58 35.55 87.62 35.12 87.57C34.68 87.53 34.25 87.38 33.87 87.16C33.49 86.93 33.15 86.62 32.89 86.25C32.63 85.88 32.45 85.46 32.36 85.02L30.64 76.89C30.46 76.07 30.05 75.31 29.47 74.71C28.88 74.11 28.15 73.7 27.34 73.52L26.98 73.44L24.01 77.93L25.67 78.31L27.32 86.1C27.55 87.22 28.02 88.28 28.67 89.2C29.33 90.13 30.17 90.9 31.13 91.48C32.09 92.05 33.16 92.41 34.27 92.53C35.38 92.65 36.49 92.54 37.55 92.19L44.91 89.75L50.14 95.66C51.04 96.66 52.16 97.41 53.41 97.85L55.99 93.95L58.6 97.88C59.88 97.44 61.03 96.68 61.95 95.66L67.16 89.77Z" fill="#7C3AED" fill-opacity="1.000000" fill-rule="nonzero"/>
	<path id="Vector" d="M48.59 86.17C48.19 85.71 47.7 85.34 47.15 85.09C46.6 84.84 46.01 84.71 45.41 84.7C44.97 84.7 44.53 84.77 44.1 84.91L36.42 87.44C36 87.58 35.55 87.62 35.11 87.57C34.67 87.53 34.25 87.38 33.87 87.16C33.48 86.93 33.15 86.62 32.89 86.25C32.63 85.88 32.45 85.46 32.36 85.02L31.5 80.99L8.72 114.55L21.85 113.65L25.5 126.68L51.09 88.99L48.59 86.17ZM80.48 81L79.63 85.03C79.54 85.48 79.36 85.9 79.1 86.26C78.84 86.63 78.5 86.94 78.12 87.17C77.74 87.39 77.32 87.54 76.88 87.59C76.44 87.63 75.99 87.59 75.57 87.45L67.89 84.93C67.1 84.67 66.26 84.65 65.46 84.87C64.67 85.09 63.95 85.54 63.4 86.17L60.9 88.99L86.49 126.68L90.14 113.65L103.27 114.55L80.48 81Z" fill="#8B5CF6" fill-opacity="1.000000" fill-rule="nonzero"/>
	<path id="Vector" d="M51.09 88.99L48.59 86.17C48.19 85.71 47.7 85.34 47.15 85.09C46.6 84.84 46.01 84.71 45.41 84.7C44.97 84.7 44.53 84.77 44.1 84.91L36.42 87.44C36 87.58 35.55 87.62 35.11 87.57C34.67 87.53 34.25 87.38 33.87 87.16C33.48 86.93 33.15 86.62 32.89 86.25C32.63 85.88 32.45 85.46 32.36 85.02L31.5 80.99L27.53 86.84C28.18 88.92 29.59 90.65 31.47 91.65C33.35 92.65 35.54 92.85 37.55 92.19L44.91 89.75L48.12 93.38L51.1 88.99L51.09 88.99ZM74.54 92.19C76.53 92.84 78.7 92.66 80.57 91.69C82.44 90.71 83.87 89.01 84.53 86.96L80.48 81L79.63 85.03C79.54 85.48 79.36 85.9 79.1 86.26C78.84 86.63 78.5 86.94 78.12 87.17C77.74 87.39 77.32 87.54 76.88 87.59C76.44 87.63 75.99 87.59 75.57 87.45L67.89 84.93C67.1 84.67 66.26 84.65 65.46 84.87C64.67 85.09 63.95 85.54 63.4 86.17L60.9 88.99L63.91 93.44L67.16 89.76L74.54 92.19Z" fill="#A78BFA" fill-opacity="1.000000" fill-rule="nonzero"/>
	<path id="Vector" d="M85.19 19.87L93.07 21.64C93.58 21.76 94.06 21.98 94.48 22.3C94.9 22.61 95.25 23.02 95.51 23.48C95.77 23.95 95.93 24.46 95.99 24.99C96.05 25.53 95.99 26.07 95.84 26.58L93.39 34.5C93.17 35.21 93.15 35.96 93.34 36.67C93.52 37.38 93.9 38.03 94.43 38.52L100.39 44.13C100.77 44.49 101.08 44.93 101.29 45.42C101.5 45.91 101.61 46.44 101.61 46.98C101.61 47.51 101.5 48.04 101.29 48.53C101.08 49.02 100.77 49.46 100.39 49.83L94.43 55.43C93.9 55.93 93.52 56.57 93.34 57.28C93.15 57.99 93.17 58.75 93.39 59.45L95.84 67.38C95.99 67.89 96.05 68.43 95.99 68.96C95.93 69.49 95.77 70.01 95.51 70.47C95.25 70.94 94.9 71.34 94.48 71.66C94.06 71.97 93.58 72.2 93.07 72.31L85.19 74.09C84.49 74.25 83.85 74.61 83.34 75.13C82.84 75.65 82.49 76.31 82.34 77.03L80.61 85.16C80.5 85.68 80.28 86.18 79.98 86.61C79.67 87.04 79.28 87.4 78.83 87.67C78.38 87.94 77.88 88.11 77.36 88.17C76.84 88.23 76.32 88.17 75.83 88.01L68.14 85.48C67.46 85.26 66.73 85.24 66.04 85.43C65.35 85.62 64.72 86.01 64.24 86.56L58.81 92.7C58.46 93.1 58.03 93.42 57.55 93.63C57.08 93.85 56.56 93.96 56.04 93.96C55.52 93.96 55.01 93.85 54.53 93.63C54.06 93.42 53.63 93.1 53.28 92.7L47.85 86.56C47.36 86.01 46.74 85.62 46.05 85.43C45.36 85.24 44.63 85.26 43.95 85.48L36.26 88.01C35.77 88.17 35.24 88.23 34.72 88.17C34.21 88.11 33.71 87.94 33.26 87.67C32.81 87.4 32.41 87.04 32.11 86.61C31.8 86.18 31.59 85.68 31.48 85.16L29.75 77.03C29.6 76.31 29.25 75.65 28.74 75.13C28.24 74.61 27.6 74.25 26.9 74.09L19.01 72.31C18.51 72.2 18.03 71.97 17.61 71.66C17.19 71.34 16.84 70.94 16.58 70.47C16.32 70.01 16.15 69.49 16.1 68.96C16.04 68.43 16.09 67.89 16.25 67.38L18.7 59.45C18.92 58.75 18.93 57.99 18.75 57.28C18.56 56.57 18.18 55.93 17.66 55.43L11.7 49.83C11.31 49.46 11.01 49.02 10.8 48.53C10.59 48.04 10.48 47.51 10.48 46.98C10.48 46.44 10.59 45.91 10.8 45.42C11.01 44.93 11.31 44.49 11.7 44.13L17.66 38.52C18.18 38.03 18.56 37.38 18.75 36.67C18.93 35.96 18.92 35.21 18.7 34.5L16.25 26.58C16.09 26.07 16.04 25.53 16.1 24.99C16.15 24.46 16.32 23.95 16.58 23.48C16.84 23.02 17.19 22.61 17.61 22.3C18.03 21.98 18.51 21.76 19.01 21.64L26.9 19.87C27.6 19.71 28.24 19.35 28.74 18.83C29.25 18.3 29.6 17.64 29.75 16.92L31.48 8.79C31.59 8.27 31.8 7.78 32.11 7.34C32.42 6.91 32.81 6.55 33.26 6.28C33.71 6.01 34.21 5.84 34.73 5.79C35.24 5.73 35.77 5.78 36.26 5.95L43.95 8.47C44.63 8.69 45.36 8.71 46.05 8.52C46.74 8.33 47.36 7.94 47.85 7.39L53.28 1.25C53.63 0.86 54.06 0.54 54.53 0.32C55.01 0.11 55.52 -0.01 56.04 -0.01C56.56 -0.01 57.08 0.11 57.55 0.32C58.03 0.54 58.46 0.86 58.81 1.25L64.24 7.39C64.72 7.94 65.35 8.33 66.04 8.52C66.73 8.71 67.46 8.69 68.14 8.47L75.83 5.95C76.32 5.78 76.84 5.73 77.36 5.79C77.88 5.84 78.38 6.01 78.83 6.28C79.28 6.55 79.67 6.91 79.98 7.34C80.28 7.78 80.5 8.27 80.61 8.79L82.34 16.92C82.49 17.64 82.84 18.3 83.34 18.83C83.85 19.35 84.49 19.71 85.19 19.87Z" fill="#6D28D9" fill-opacity="1.000000" fill-rule="nonzero"/>
	<path id="Vector" d="M85.57 46.99C85.57 52.63 84.04 58.16 81.16 62.96C78.29 67.76 74.17 71.64 69.28 74.17C64.39 76.7 58.92 77.78 53.47 77.29C48.01 76.79 42.8 74.75 38.41 71.38C34.02 68.01 30.63 63.45 28.61 58.21C26.58 52.97 26.01 47.25 26.96 41.69C27.91 36.13 30.33 30.96 33.96 26.74C37.6 22.52 42.29 19.42 47.53 17.8C50.29 16.94 53.16 16.5 56.04 16.51C59.92 16.51 63.77 17.3 67.35 18.83C70.93 20.36 74.19 22.61 76.93 25.44C79.68 28.27 81.85 31.63 83.33 35.33C84.81 39.03 85.58 42.99 85.57 46.99Z" fill="#A78BFA" fill-opacity="1.000000" fill-rule="nonzero"/>
	<path id="Vector" d="M85.57 46.99C85.57 52.15 84.31 57.22 81.88 61.73C79.46 66.25 75.97 70.05 71.73 72.79C68.97 73.65 66.1 74.08 63.22 74.07C56.81 74.08 50.57 71.93 45.44 67.95C40.32 63.97 36.59 58.39 34.81 52.03C33.04 45.67 33.33 38.9 35.62 32.72C37.91 26.54 42.1 21.31 47.53 17.8C50.29 16.94 53.16 16.5 56.04 16.51C59.92 16.51 63.77 17.3 67.35 18.83C70.93 20.36 74.19 22.61 76.93 25.44C79.67 28.27 81.85 31.63 83.33 35.33C84.81 39.03 85.58 42.99 85.57 46.99Z" fill="#8B5CF6" fill-opacity="1.000000" fill-rule="nonzero"/>
	<path id="Vector" d="M58.19 65.78C57.63 65.78 57.09 65.54 56.69 65.13C56.29 64.72 56.07 64.16 56.07 63.58L56.07 36.38L50.58 40.24C50.35 40.41 50.09 40.53 49.81 40.6C49.54 40.66 49.25 40.67 48.97 40.62C48.69 40.56 48.43 40.46 48.19 40.3C47.95 40.14 47.75 39.93 47.59 39.69C47.43 39.45 47.32 39.18 47.26 38.89C47.21 38.61 47.21 38.31 47.26 38.03C47.32 37.74 47.43 37.47 47.58 37.23C47.74 36.99 47.95 36.78 48.18 36.62L56.99 30.41C57.31 30.19 57.69 30.06 58.07 30.03C58.46 30.01 58.85 30.1 59.19 30.29C59.53 30.47 59.82 30.75 60.02 31.09C60.22 31.44 60.32 31.83 60.32 32.23L60.32 63.58C60.32 64.16 60.1 64.72 59.7 65.13C59.3 65.54 58.76 65.78 58.19 65.78Z" fill="#F5F3FF" fill-opacity="1.000000" fill-rule="nonzero"/>
</svg>
