<svg width="113.000000" height="103.000000" viewBox="0 0 113 103" fill="none" xmlns="http://www.w3.org/2000/svg" xmlns:xlink="http://www.w3.org/1999/xlink">
	<desc>
			Created with Pixso.
	</desc>
	<defs/>
	<path id="Vector" d="M75.71 93.09L75.71 102L36.28 102L36.28 93.09L45.68 93.09L47.34 78.05L47.73 74.46L47.73 74.39L64.23 74.39L64.25 74.46L64.64 78.05L66.3 93.09L75.71 93.09Z" fill="#8B5CF6" fill-opacity="1.000000" fill-rule="nonzero"/>
	<path id="Vector" d="M64.64 78.05L47.34 78.05L47.73 74.46L47.73 74.39L64.23 74.39L64.25 74.46L64.64 78.05Z" fill="#7C3AED" fill-opacity="1.000000" fill-rule="nonzero"/>
	<path id="Vector" d="M66.29 93.09L36.27 93.09L36.27 101.99L75.71 101.99L75.71 93.09L66.29 93.09Z" fill="#A78BFA" fill-opacity="1.000000" fill-rule="nonzero"/>
	<path id="Vector" d="M108.64 0L3.35 0C2.28 0 1.26 0.41 0.51 1.15C-0.25 1.88 -0.67 2.88 -0.67 3.92L-0.67 70.53C-0.67 71.57 -0.25 72.57 0.51 73.31C1.26 74.04 2.28 74.46 3.35 74.46L108.39 74.46C108.95 74.46 109.51 74.35 110.03 74.14C110.54 73.93 111.02 73.63 111.41 73.24C111.81 72.86 112.12 72.4 112.34 71.89C112.55 71.39 112.66 70.85 112.66 70.3L112.66 3.92C112.66 2.88 112.24 1.88 111.48 1.15C110.73 0.41 109.7 0 108.64 0Z" fill="#C4B5FD" fill-opacity="1.000000" fill-rule="nonzero"/>
	<path id="Vector" d="M6.81 6.8L105.18 6.8L105.18 60.98L6.81 60.98L6.81 6.8Z" fill="#4C1D95" fill-opacity="1.000000" fill-rule="nonzero"/>
	<path id="Vector" d="M105.18 6.8L105.18 56.05L28.89 56.05C25.03 56.04 21.32 54.55 18.59 51.89C15.85 49.23 14.32 45.62 14.32 41.85L14.32 6.8L105.18 6.8Z" fill="#6D28D9" fill-opacity="1.000000" fill-rule="nonzero"/>
	<path id="Vector" d="M90.31 44.91C90.34 44.84 90.38 44.77 90.43 44.7L90.43 44.68C91.12 43.54 91.67 42.33 92.09 41.07C93.22 37.55 93.2 33.77 92.02 30.26C90.85 26.75 88.59 23.68 85.55 21.48C82.51 19.27 78.84 18.05 75.05 17.96C71.26 17.88 67.54 18.95 64.4 21.01C62.23 22.43 60.41 24.29 59.06 26.47C57.82 28.47 56.98 30.68 56.62 32.99C56.25 35.3 56.35 37.66 56.92 39.93C57.49 42.2 58.51 44.34 59.93 46.23C61.35 48.11 63.13 49.71 65.18 50.92C68.1 52.58 71.41 53.47 74.78 53.51C76.69 53.52 78.59 53.21 80.39 52.58C81.67 52.13 82.91 51.57 84.09 50.92L84.12 50.94L89.36 56.05L101.71 56.05C96.4 50.9 90.31 44.94 90.31 44.91Z" fill="#4C1D95" fill-opacity="1.000000" fill-rule="nonzero"/>
	<path id="Vector" d="M110.54 67.61C110.35 68.35 109.95 69.02 109.39 69.56C108.57 70.35 107.46 70.79 106.31 70.79C105.15 70.79 104.05 70.35 103.23 69.56L94.43 60.99L105.18 60.99L105.18 59.44L109.39 63.55C109.94 64.07 110.33 64.71 110.53 65.43C110.73 66.14 110.73 66.89 110.54 67.61Z" fill="#DDD6FE" fill-opacity="1.000000" fill-rule="nonzero"/>
	<path id="Vector" d="M105.18 59.44L105.18 60.98L94.43 60.98L89.36 56.05L101.71 56.05C102.93 57.23 104.13 58.4 105.18 59.44Z" fill="#5B21B6" fill-opacity="1.000000" fill-rule="nonzero"/>
	<path id="Vector" d="M111.38 61.73L92.27 43.13C94.58 39.41 95.41 35 94.61 30.73C93.8 26.46 91.42 22.63 87.91 19.95C84.4 17.27 80 15.94 75.55 16.2C71.1 16.46 66.91 18.3 63.75 21.37C60.6 24.44 58.71 28.53 58.44 32.87C58.17 37.2 59.54 41.48 62.29 44.9C65.04 48.32 68.98 50.63 73.37 51.42C77.75 52.2 82.28 51.39 86.09 49.15L105.2 67.75C106.02 68.55 107.13 69 108.29 69C109.45 69 110.56 68.55 111.38 67.75C112.2 66.96 112.66 65.87 112.66 64.74C112.66 63.61 112.2 62.53 111.38 61.73Z" fill="#A78BFA" fill-opacity="1.000000" fill-rule="nonzero"/>
	<path id="Vector" d="M94.9 33.92C94.9 43.74 86.73 51.7 76.64 51.7C66.55 51.7 58.38 43.74 58.38 33.92C58.38 24.1 66.55 16.13 76.64 16.13C86.73 16.13 94.9 24.1 94.9 33.92Z" fill="#8B5CF6" fill-opacity="1.000000" fill-rule="evenodd"/>
	<path id="Vector" d="M111.38 61.73L92.26 43.11C91.49 44.34 90.58 45.47 89.55 46.49C89.05 46.97 88.52 47.43 87.96 47.86L106.2 65.61C107.02 66.41 108.13 66.86 109.29 66.86C110.45 66.86 111.56 66.41 112.38 65.61L112.61 65.38C112.71 64.72 112.65 64.04 112.44 63.41C112.22 62.78 111.86 62.2 111.38 61.73Z" fill="#C4B5FD" fill-opacity="1.000000" fill-rule="evenodd"/>
	<path id="Vector" d="M76.64 16.13C72.29 16.13 68.08 17.64 64.78 20.4C62.46 24.01 61.55 28.3 62.21 32.5C62.86 36.7 65.04 40.53 68.34 43.3C71.65 46.08 75.86 47.61 80.23 47.62C84.59 47.62 88.81 46.11 92.13 43.35C93.86 40.66 94.82 37.57 94.9 34.39C94.99 31.22 94.2 28.08 92.62 25.3C91.04 22.52 88.72 20.2 85.91 18.59C83.1 16.98 79.9 16.13 76.64 16.13Z" fill="#C4B5FD" fill-opacity="1.000000" fill-rule="nonzero"/>
</svg>
