<svg width="113.000000" height="113.000000" viewBox="0 0 113 113" fill="none" xmlns="http://www.w3.org/2000/svg" xmlns:xlink="http://www.w3.org/1999/xlink">
	<desc>
			Created with Pixso.
	</desc>
	<defs/>
	<path id="Vector" d="M55.73 6.8L55.73 7.16L27.21 7.16L27.21 6.8L29.11 -0.67L53.83 -0.67L55.73 6.8Z" fill="#EDE9FE" fill-opacity="1.000000" fill-rule="nonzero"/>
	<path id="Vector" d="M-0.67 6.8L83.62 6.8L83.62 112.66L-0.67 112.66L-0.67 6.8Z" fill="#4C1D95" fill-opacity="1.000000" fill-rule="nonzero"/>
	<path id="Vector" d="M6.94 14.2L75.99 14.2L75.99 105.28L6.94 105.28L6.94 14.2Z" fill="#C4B5FD" fill-opacity="1.000000" fill-rule="nonzero"/>
	<path id="Vector" d="M75.99 14.2L75.99 99.7L27.79 99.7C26.23 99.7 24.68 99.4 23.24 98.82C21.79 98.24 20.48 97.39 19.38 96.32C18.27 95.25 17.4 93.98 16.8 92.58C16.2 91.18 15.9 89.68 15.9 88.17L15.9 14.2L75.99 14.2Z" fill="#A78BFA" fill-opacity="1.000000" fill-rule="nonzero"/>
	<path id="Vector" d="M16.36 23.13C15.8 23.13 15.27 23.35 14.87 23.73C14.48 24.11 14.25 24.63 14.25 25.17L14.25 35.62C14.25 36.16 14.48 36.68 14.87 37.06C15.27 37.44 15.8 37.66 16.36 37.66L27.14 37.66C27.7 37.66 28.24 37.44 28.63 37.06C29.03 36.68 29.25 36.16 29.25 35.62L29.25 25.35C29.25 25.06 29.19 24.77 29.07 24.5C28.96 24.23 28.79 23.99 28.58 23.78C28.36 23.57 28.11 23.41 27.83 23.3C27.55 23.19 27.25 23.13 26.95 23.13L16.36 23.13ZM16.36 52.17C15.8 52.17 15.27 52.38 14.87 52.77C14.48 53.15 14.25 53.67 14.25 54.21L14.25 64.66C14.25 65.2 14.48 65.72 14.87 66.1C15.27 66.48 15.8 66.7 16.36 66.7L27.14 66.7C27.7 66.7 28.24 66.48 28.63 66.1C29.03 65.72 29.25 65.2 29.25 64.66L29.25 54.39C29.25 53.8 29.01 53.24 28.58 52.82C28.15 52.4 27.56 52.17 26.95 52.17L16.36 52.17ZM16.36 80.79C16.08 80.79 15.81 80.84 15.56 80.94C15.3 81.04 15.07 81.19 14.87 81.38C14.68 81.57 14.52 81.8 14.41 82.05C14.31 82.29 14.25 82.56 14.25 82.83L14.25 93.29C14.25 93.83 14.48 94.35 14.87 94.73C15.27 95.11 15.8 95.33 16.36 95.33L27.14 95.33C27.7 95.33 28.24 95.11 28.63 94.73C29.03 94.35 29.25 93.83 29.25 93.29L29.25 83.01C29.25 82.72 29.19 82.43 29.07 82.16C28.96 81.89 28.79 81.64 28.58 81.44C28.36 81.23 28.11 81.07 27.83 80.96C27.55 80.84 27.25 80.79 26.95 80.79L16.36 80.79Z" fill="#6D28D9" fill-opacity="1.000000" fill-rule="nonzero"/>
	<path id="Vector" d="M67.17 32.16L52.29 32.16C51.79 32.16 51.31 31.96 50.96 31.62C50.6 31.28 50.41 30.81 50.41 30.33C50.41 29.84 50.6 29.38 50.96 29.04C51.31 28.69 51.79 28.5 52.29 28.5L67.17 28.5C67.67 28.5 68.15 28.69 68.5 29.04C68.85 29.38 69.05 29.84 69.05 30.33C69.05 30.81 68.85 31.28 68.5 31.62C68.15 31.96 67.67 32.16 67.17 32.16ZM44.68 32.16L37.03 32.16C36.53 32.16 36.05 31.96 35.7 31.62C35.34 31.28 35.14 30.81 35.14 30.33C35.14 29.84 35.34 29.38 35.7 29.04C36.05 28.69 36.53 28.5 37.03 28.5L44.68 28.5C45.18 28.5 45.66 28.69 46.01 29.04C46.36 29.38 46.56 29.84 46.56 30.33C46.56 30.81 46.36 31.28 46.01 31.62C45.66 31.96 45.18 32.16 44.68 32.16ZM67.17 60.46L59.8 60.46C59.3 60.46 58.82 60.27 58.46 59.92C58.11 59.58 57.91 59.12 57.91 58.63C57.91 58.15 58.11 57.68 58.46 57.34C58.82 57 59.3 56.8 59.8 56.8L67.17 56.8C67.67 56.8 68.15 57 68.5 57.34C68.85 57.68 69.05 58.15 69.05 58.63C69.05 59.12 68.85 59.58 68.5 59.92C68.15 60.27 67.67 60.46 67.17 60.46ZM52.12 60.46L37.02 60.46C36.52 60.46 36.04 60.27 35.69 59.92C35.34 59.58 35.14 59.12 35.14 58.63C35.14 58.15 35.34 57.68 35.69 57.34C36.04 57 36.52 56.8 37.02 56.8L52.12 56.8C52.62 56.8 53.1 57 53.45 57.34C53.8 57.68 54 58.15 54 58.63C54 59.12 53.8 59.58 53.45 59.92C53.1 60.27 52.62 60.46 52.12 60.46ZM23.04 33.59L22.97 33.59C22.72 33.58 22.48 33.53 22.25 33.42C22.02 33.32 21.82 33.18 21.65 33L19.31 30.51C19.15 30.34 19.02 30.13 18.93 29.9C18.85 29.68 18.81 29.44 18.82 29.2C18.84 28.96 18.9 28.72 19 28.51C19.11 28.29 19.25 28.09 19.44 27.93C19.62 27.77 19.83 27.65 20.07 27.56C20.3 27.48 20.55 27.45 20.79 27.46C21.04 27.47 21.28 27.53 21.51 27.63C21.73 27.73 21.93 27.87 22.1 28.05L23.15 29.17L33.02 20.2C33.38 19.87 33.87 19.69 34.37 19.71C34.87 19.72 35.34 19.93 35.68 20.28C36.03 20.63 36.21 21.11 36.19 21.59C36.18 22.07 35.96 22.53 35.6 22.86L24.34 33.1C23.99 33.42 23.52 33.59 23.04 33.59ZM23.04 62.63L22.97 62.63C22.72 62.62 22.48 62.56 22.25 62.46C22.02 62.36 21.82 62.22 21.65 62.04L19.31 59.55C19.15 59.37 19.02 59.17 18.93 58.94C18.85 58.72 18.81 58.48 18.82 58.24C18.84 58 18.9 57.76 19 57.54C19.11 57.33 19.25 57.13 19.44 56.97C19.62 56.81 19.83 56.68 20.07 56.6C20.3 56.52 20.55 56.48 20.79 56.5C21.04 56.51 21.28 56.56 21.51 56.67C21.73 56.77 21.93 56.91 22.1 57.09L23.15 58.2L33.02 49.24C33.38 48.9 33.87 48.73 34.37 48.74C34.87 48.76 35.34 48.97 35.68 49.32C36.03 49.67 36.21 50.14 36.19 50.63C36.18 51.11 35.96 51.57 35.6 51.9L24.34 62.14C23.99 62.46 23.52 62.63 23.04 62.63ZM23.04 91.25L22.97 91.25C22.72 91.24 22.48 91.18 22.25 91.08C22.02 90.98 21.82 90.83 21.65 90.65L19.31 88.17C19.13 87.99 18.99 87.78 18.9 87.55C18.81 87.33 18.76 87.08 18.77 86.84C18.78 86.59 18.84 86.35 18.94 86.13C19.05 85.91 19.2 85.71 19.39 85.54C19.57 85.38 19.79 85.25 20.03 85.17C20.27 85.09 20.52 85.05 20.77 85.07C21.03 85.08 21.27 85.15 21.5 85.25C21.73 85.36 21.93 85.52 22.09 85.7L23.14 86.82L33.01 77.85C33.38 77.54 33.86 77.37 34.35 77.4C34.84 77.42 35.3 77.63 35.63 77.97C35.97 78.32 36.15 78.78 36.14 79.25C36.13 79.73 35.94 80.18 35.59 80.51L24.33 90.75C23.98 91.07 23.52 91.25 23.04 91.25ZM67.66 89.82L52.79 89.82C52.29 89.82 51.81 89.63 51.45 89.29C51.1 88.94 50.9 88.48 50.9 87.99C50.9 87.51 51.1 87.04 51.45 86.7C51.81 86.36 52.29 86.17 52.79 86.17L67.66 86.17C68.16 86.17 68.64 86.36 68.99 86.7C69.35 87.04 69.54 87.51 69.54 87.99C69.54 88.48 69.35 88.94 68.99 89.29C68.64 89.63 68.16 89.82 67.66 89.82ZM45.16 89.82L37.52 89.82C37.02 89.82 36.54 89.63 36.19 89.29C35.83 88.94 35.64 88.48 35.64 87.99C35.64 87.51 35.83 87.04 36.19 86.7C36.54 86.36 37.02 86.17 37.52 86.17L45.16 86.17C45.66 86.17 46.14 86.36 46.5 86.7C46.85 87.04 47.05 87.51 47.05 87.99C47.05 88.48 46.85 88.94 46.5 89.29C46.14 89.63 45.66 89.82 45.16 89.82Z" fill="#EDE9FE" fill-opacity="1.000000" fill-rule="nonzero"/>
	<path id="Vector" d="M112.66 49.58C112.66 50.07 112.46 50.53 112.11 50.88C111.76 51.22 111.28 51.41 110.78 51.41C110.28 51.41 109.8 51.22 109.44 50.88C109.09 50.53 108.89 50.07 108.89 49.58L108.89 32.87C108.76 32.45 108.26 31.48 106.05 31.48L104.15 31.48L104.15 28.14C104.15 28.03 104.15 27.92 104.13 27.82L106.05 27.82C107.55 27.65 109.07 28.03 110.29 28.89C111.51 29.76 112.35 31.04 112.64 32.48L112.66 49.58ZM104.29 93.89L98.58 112.66L92.84 93.89L104.29 93.89Z" fill="#6D28D9" fill-opacity="1.000000" fill-rule="nonzero"/>
	<path id="Vector" d="M92.84 49.59L104.29 49.59L104.29 93.89L92.84 93.89L92.84 49.59Z" fill="#C4B5FD" fill-opacity="1.000000" fill-rule="nonzero"/>
	<path id="Vector" d="M104.29 28.14L104.29 49.58L92.84 49.58L92.84 28.14C92.84 26.67 93.45 25.26 94.52 24.22C95.59 23.18 97.05 22.59 98.57 22.59C100.08 22.59 101.54 23.18 102.61 24.22C103.69 25.26 104.29 26.67 104.29 28.14Z" fill="#6D28D9" fill-opacity="1.000000" fill-rule="nonzero"/>
	<path id="Vector" d="M104.29 93.89L98.58 112.66L98.58 93.89L104.29 93.89Z" fill="#7C3AED" fill-opacity="1.000000" fill-rule="nonzero"/>
	<path id="Vector" d="M98.58 49.59L104.29 49.59L104.29 93.89L98.58 93.89L98.58 49.59Z" fill="#A78BFA" fill-opacity="1.000000" fill-rule="nonzero"/>
	<path id="Vector" d="M104.29 28.14L104.29 49.59L98.58 49.59L98.58 22.6C100.04 22.6 101.44 23.14 102.49 24.11C103.55 25.08 104.19 26.41 104.26 27.82C104.28 27.92 104.29 28.03 104.29 28.14Z" fill="#7C3AED" fill-opacity="1.000000" fill-rule="nonzero"/>
</svg>
